<mxfile host="app.diagrams.net" modified="2023-06-29T13:25:44.565Z" agent="Mozilla/5.0 (Windows NT 10.0; Win64; x64; rv:109.0) Gecko/20100101 Firefox/114.0" etag="uuHpSORx6eJNB8FZE0vH" version="21.5.0" type="github" pages="6">
  <diagram name="Connexion" id="c9db0220-8083-56f3-ca83-edcdcd058819">
    <mxGraphModel dx="948" dy="548" grid="1" gridSize="10" guides="1" tooltips="1" connect="1" arrows="1" fold="1" page="1" pageScale="1.5" pageWidth="826" pageHeight="1169" background="none" math="0" shadow="0">
      <root>
        <mxCell id="0" style=";html=1;" />
        <mxCell id="1" style=";html=1;" parent="0" />
        <mxCell id="GCra2vSwSRETqQTXxLgp-5" value="" style="shape=process;whiteSpace=wrap;html=1;backgroundOutline=0;size=0.05555555555555555;rotation=90;movable=1;resizable=1;rotatable=1;deletable=1;editable=1;locked=0;connectable=1;container=0;cloneable=0;snapToPoint=0;allowArrows=0;recursiveResize=0;expand=0;" vertex="1" parent="1">
          <mxGeometry x="240" width="720" height="880" as="geometry" />
        </mxCell>
        <mxCell id="GCra2vSwSRETqQTXxLgp-6" value="Page de connexion Learn@Home" style="text;html=1;strokeColor=none;fillColor=none;align=left;verticalAlign=middle;whiteSpace=wrap;rounded=0;fontStyle=1" vertex="1" parent="1">
          <mxGeometry x="160" y="80" width="880" height="40" as="geometry" />
        </mxCell>
        <UserObject label="Connexion" link="data:page/id,8tI4YglRhcNIQhs9JiEP" id="l-OIZp_XxwScdq2fA5Py-1">
          <mxCell style="labelPosition=center;verticalLabelPosition=middle;align=center;html=1;shape=mxgraph.basic.button;dx=3;whiteSpace=wrap;" vertex="1" parent="1">
            <mxGeometry x="550" y="630" width="100" height="30" as="geometry" />
          </mxCell>
        </UserObject>
        <mxCell id="l-OIZp_XxwScdq2fA5Py-2" value="" style="endArrow=none;html=1;rounded=0;" edge="1" parent="1">
          <mxGeometry width="50" height="50" relative="1" as="geometry">
            <mxPoint x="800" y="450" as="sourcePoint" />
            <mxPoint x="400" y="450" as="targetPoint" />
          </mxGeometry>
        </mxCell>
        <mxCell id="l-OIZp_XxwScdq2fA5Py-3" value="" style="endArrow=none;html=1;rounded=0;" edge="1" parent="1">
          <mxGeometry width="50" height="50" relative="1" as="geometry">
            <mxPoint x="800" y="350" as="sourcePoint" />
            <mxPoint x="400" y="350" as="targetPoint" />
          </mxGeometry>
        </mxCell>
        <mxCell id="l-OIZp_XxwScdq2fA5Py-4" value="Email" style="text;html=1;strokeColor=none;fillColor=none;align=center;verticalAlign=middle;whiteSpace=wrap;rounded=0;fontStyle=1" vertex="1" parent="1">
          <mxGeometry x="570" y="310" width="60" height="30" as="geometry" />
        </mxCell>
        <mxCell id="l-OIZp_XxwScdq2fA5Py-5" value="Mot de passe" style="text;html=1;strokeColor=none;fillColor=none;align=center;verticalAlign=middle;whiteSpace=wrap;rounded=0;fontStyle=1" vertex="1" parent="1">
          <mxGeometry x="550" y="420" width="100" height="30" as="geometry" />
        </mxCell>
        <mxCell id="l-OIZp_XxwScdq2fA5Py-6" value="Veuillez entrer votre mot de passe ici" style="text;html=1;strokeColor=none;fillColor=none;align=left;verticalAlign=middle;whiteSpace=wrap;rounded=0;fontStyle=0;fontColor=#B3B3B3;" vertex="1" parent="1">
          <mxGeometry x="400" y="460" width="400" height="30" as="geometry" />
        </mxCell>
        <mxCell id="l-OIZp_XxwScdq2fA5Py-8" value="Veuillez entrer votre adresse e-mail ici" style="text;html=1;strokeColor=none;fillColor=none;align=left;verticalAlign=middle;whiteSpace=wrap;rounded=0;fontStyle=0;fontColor=#B3B3B3;imageAspect=0;" vertex="1" parent="1">
          <mxGeometry x="400" y="360" width="400" height="30" as="geometry" />
        </mxCell>
        <UserObject label="Mot de passe oubliez ? cliquer ici." link="data:page/id,Cd1lvKLRSI39oDY2_dvT" id="tPgeihNgHqRZfAXmktyN-1">
          <mxCell style="text;html=1;strokeColor=none;fillColor=none;align=left;verticalAlign=middle;whiteSpace=wrap;rounded=0;fontStyle=0;fontColor=#99CCFF;" vertex="1" parent="1">
            <mxGeometry x="400" y="540" width="400" height="30" as="geometry" />
          </mxCell>
        </UserObject>
        <mxCell id="tPgeihNgHqRZfAXmktyN-2" value="&lt;b&gt;&lt;font style=&quot;font-size: 36px;&quot;&gt;Learn@Home&lt;/font&gt;&lt;/b&gt;" style="text;html=1;strokeColor=none;fillColor=none;align=center;verticalAlign=middle;whiteSpace=wrap;rounded=0;" vertex="1" parent="1">
          <mxGeometry x="570" y="180" width="60" height="30" as="geometry" />
        </mxCell>
      </root>
    </mxGraphModel>
  </diagram>
  <diagram id="jvLBWbIKL6eCG4-UsJqA" name="Chat">
    <mxGraphModel dx="1374" dy="795" grid="1" gridSize="10" guides="1" tooltips="1" connect="1" arrows="1" fold="1" page="1" pageScale="1" pageWidth="827" pageHeight="1169" math="0" shadow="0">
      <root>
        <mxCell id="0" />
        <mxCell id="1" parent="0" />
        <mxCell id="-BjMlT47IdvlPL_PJHIb-1" value="" style="shape=process;whiteSpace=wrap;html=1;backgroundOutline=1;size=0.05555555555555555;rotation=90;" vertex="1" parent="1">
          <mxGeometry x="240" width="720" height="880" as="geometry" />
        </mxCell>
        <mxCell id="-BjMlT47IdvlPL_PJHIb-2" value="Page de chat Learn@Home" style="text;html=1;strokeColor=none;fillColor=none;align=left;verticalAlign=middle;whiteSpace=wrap;rounded=0;fontStyle=1" vertex="1" parent="1">
          <mxGeometry x="160" y="80" width="880" height="40" as="geometry" />
        </mxCell>
      </root>
    </mxGraphModel>
  </diagram>
  <diagram id="PDa1AygB55oJjhLaxGvg" name="Calendrier">
    <mxGraphModel dx="1374" dy="795" grid="1" gridSize="10" guides="1" tooltips="1" connect="1" arrows="1" fold="1" page="1" pageScale="1" pageWidth="827" pageHeight="1169" math="0" shadow="0">
      <root>
        <mxCell id="0" />
        <mxCell id="1" parent="0" />
        <mxCell id="9SUj6kuJsXJh8AWOCvDk-1" value="" style="shape=process;whiteSpace=wrap;html=1;backgroundOutline=1;size=0.05555555555555555;rotation=90;" vertex="1" parent="1">
          <mxGeometry x="240" width="720" height="880" as="geometry" />
        </mxCell>
        <mxCell id="9SUj6kuJsXJh8AWOCvDk-2" value="Page de calendrier Learn@Home" style="text;html=1;strokeColor=none;fillColor=none;align=left;verticalAlign=middle;whiteSpace=wrap;rounded=0;fontStyle=1" vertex="1" parent="1">
          <mxGeometry x="160" y="80" width="880" height="40" as="geometry" />
        </mxCell>
      </root>
    </mxGraphModel>
  </diagram>
  <diagram id="NtBrbrbS6A_K5Sb4lQUh" name="Taches">
    <mxGraphModel dx="1374" dy="795" grid="1" gridSize="10" guides="1" tooltips="1" connect="1" arrows="1" fold="1" page="1" pageScale="1" pageWidth="827" pageHeight="1169" math="0" shadow="0">
      <root>
        <mxCell id="0" />
        <mxCell id="1" parent="0" />
        <mxCell id="OBNiMOlPsRF5nbTXyCOE-1" value="" style="shape=process;whiteSpace=wrap;html=1;backgroundOutline=1;size=0.05555555555555555;rotation=90;" vertex="1" parent="1">
          <mxGeometry x="240" width="720" height="880" as="geometry" />
        </mxCell>
        <mxCell id="OBNiMOlPsRF5nbTXyCOE-2" value="Page de Gestion des tâches Learn@Home" style="text;html=1;strokeColor=none;fillColor=none;align=left;verticalAlign=middle;whiteSpace=wrap;rounded=0;fontStyle=1" vertex="1" parent="1">
          <mxGeometry x="160" y="80" width="880" height="40" as="geometry" />
        </mxCell>
      </root>
    </mxGraphModel>
  </diagram>
  <diagram id="8tI4YglRhcNIQhs9JiEP" name="Tableau_de_bord">
    <mxGraphModel dx="1374" dy="795" grid="1" gridSize="10" guides="1" tooltips="1" connect="1" arrows="1" fold="1" page="1" pageScale="1" pageWidth="827" pageHeight="1169" math="0" shadow="0">
      <root>
        <mxCell id="0" />
        <mxCell id="1" parent="0" />
        <mxCell id="AnNco3qtHtJ0rxQlufRY-1" value="" style="shape=process;whiteSpace=wrap;html=1;backgroundOutline=1;size=0.05555555555555555;rotation=90;" vertex="1" parent="1">
          <mxGeometry x="240" width="720" height="880" as="geometry" />
        </mxCell>
        <mxCell id="AnNco3qtHtJ0rxQlufRY-2" value="Page de tableau de bord Learn@Home" style="text;html=1;strokeColor=none;fillColor=none;align=left;verticalAlign=middle;whiteSpace=wrap;rounded=0;fontStyle=1" vertex="1" parent="1">
          <mxGeometry x="160" y="80" width="880" height="40" as="geometry" />
        </mxCell>
      </root>
    </mxGraphModel>
  </diagram>
  <diagram id="Cd1lvKLRSI39oDY2_dvT" name="Mot_de_passe_oublié">
    <mxGraphModel dx="1374" dy="795" grid="1" gridSize="10" guides="1" tooltips="1" connect="1" arrows="1" fold="1" page="1" pageScale="1" pageWidth="827" pageHeight="1169" math="0" shadow="0">
      <root>
        <mxCell id="0" />
        <mxCell id="1" parent="0" />
      </root>
    </mxGraphModel>
  </diagram>
</mxfile>
